# File produced by Open Asset Import Library (http://www.assimp.sf.net)
# (assimp v3.1.187496374)

mtllib fern.obj.mtl

# 200 vertex positions
v  -14.0606 124.882 -81.5273
v  -21.3906 115.566 -72.8517
v  -24.5414 103.722 -100.202
v  -23.5159 104.241 -111.993
v  -4.3276 121.756 -75.7431
v  -23.9326 96.5714 -105.686
v  17.988 -0.00348198 -3.66611
v  -8.13501e-09 1.54135e-14 7.87433e-08
v  9.00432 28.6282 -3.86316
v  13.463 30.8925 -13.202
v  7.33782 61.8049 -2.00448
v  16.1534 58.546 -12.0129
v  1.43714 91.0528 -16.1903
v  10.3793 93.764 -23.4533
v  -6.39051 88.8665 -17.5833
v  -7.83847 104.929 -26.2102
v  1.66751 110.713 -27.8696
v  8.2677 108.628 -32.9059
v  -2.4835 -0.00348182 -4.93433
v  0.451578 31.0002 -0.291387
v  -1.36038 60.1831 -7.22487
v  -3.8714 125.306 -52.791
v  -14.2566 117.773 -50.2045
v  -55.4742 101.902 72.8591
v  -50.9037 94.8733 73.2395
v  -76.1088 71.9843 99.5943
v  -76.683 76.1824 100.91
v  -58.5963 103.88 66.6209
v  -82.2164 76.7935 96.7899
v  -4.84004 -0.00348183 -5.26952
v  -3.58897e-10 6.80007e-16 3.47397e-09
v  3.34936 31.6067 -2.08633
v  -6.63137 31.8254 -6.07802
v  -3.03499 60.991 3.24355
v  -12.753 60.8258 0.442322
v  -10.0565 92.1885 10.1813
v  -20.6331 91.9642 7.22021
v  -27.883 111 32.6271
v  -36.7004 109.473 29.3719
v  6.90062 -0.0034798 6.47567
v  4.2564 30.0289 7.81994
v  -1.37004 61.5235 14.3628
v  -6.48463 91.6871 20.2865
v  -24.5798 107.402 42.7637
v  37.1761 106.039 82.7356
v  47.6574 102.024 79.6246
v  60.5412 76.3839 112.4
v  56.8726 78.0737 115.829
v  34.5027 99.1267 84.9873
v  50.29 74.1437 115.337
v  -8.68794 -0.00348011 3.22323
v  -1.23608 32.1761 -2.28313
v  -8.0283 30.4531 4.54897
v  0.62465 60.6189 3.73623
v  -3.17634 62.7886 12.9457
v  8.03121 91.5214 12.4281
v  0.624777 93.6117 19.4298
v  20.4887 110.256 36.6709
v  12.504 109.032 45.6208
v  5.86334 -0.00348167 -3.29223
v  7.10261 31.6607 -3.15737
v  12.2026 60.2155 6.31885
v  17.9702 93.4125 10.9631
v  30.0496 108.015 37.1628
v  70.7645 111.476 -41.9304
v  67.9589 99.9962 -54.0132
v  91.7662 77.5517 -67.1796
v  96.9524 85.201 -61.3637
v  77.2375 111.198 -33.6415
v  102.555 86.9526 -56.2047
v  9.09158 -0.00348038 3.66383
v  6.44973 32.4292 0.294167
v  15.1721 32.0059 4.13154
v  14.8352 59.8016 -2.80135
v  22.6861 59.5171 3.51386
v  24.3794 87.63 -9.92964
v  32.7106 85.9761 -2.89813
v  25.2615 87.0099 -17.363
v  35.1807 101.128 -24.003
v  35.2521 102.563 -15.4485
v  41.1399 96.9627 -6.55593
v  7.22716 32.4329 -11.4367
v  14.5929 58.6702 -11.4271
v  58.0317 113.337 -31.3626
v  56.5005 106.674 -42.4615
v  -46.2467 122.402 -64.0502
v  -53.0778 118.507 -57.1343
v  -68.2973 100.357 -88.013
v  -63.5875 102.953 -92.5852
v  -39.424 115.769 -65.3521
v  -62.0986 97.4838 -89.2798
v  8.29599 -0.0034822 -5.79016
v  1.33316 32.0481 -0.548616
v  3.93558 31.6362 -7.77306
v  -2.03158 61.1049 -2.08809
v  2.82321 59.5908 -12.2115
v  -11.6934 91.4416 -13.3478
v  -4.933 90.4374 -20.3485
v  -22.6219 118.617 -30.377
v  -20.14 114.98 -34.7041
v  -6.63933 -0.00348025 2.74953
v  -8.54296 31.9083 3.06392
v  -12.7472 59.9872 -4.18883
v  -18.7263 89.0318 -11.3451
v  -32.4847 117.944 -27.2575
v  17.5391 119.115 -75.332
v  12.0248 114.894 -73.9917
v  13.8363 79.6437 -112.519
v  21.0403 84.1549 -113.713
v  22.4967 109.545 -86.1138
v  22.5651 84.1997 -112.183
v  9.63178 -0.00348164 -2.77548
v  4.88647 31.2851 -5.92653
v  14.6551 30.6804 -8.39473
v  8.67991 60.508 -12.4686
v  19.4496 58.4761 -14.8636
v  12.7165 88.863 -22.4673
v  23.8402 85.346 -22.9875
v  6.70638 88.3203 -28.9773
v  8.88151 112.265 -41.0266
v  16.5917 116.134 -36.0384
v  26.5931 113.542 -36.5034
v  -6.85406 -0.00348291 -11.0187
v  -3.28923 31.4535 -12.3778
v  1.99211 58.2744 -20.2399
v  17.8566 123.754 -52.9709
v  10.6901 119.323 -57.297
v  75.4192 93.5676 31.3402
v  79.6278 91.5084 27.1806
v  111.891 78.7448 47.1095
v  108.827 76.0069 53.088
v  74.9203 83.6544 37.5439
v  105.883 70.2178 54.3941
v  -3.11995 -0.00347918 8.63987
v  -2.75334 32.0346 -0.698372
v  -1.55868 32.2036 9.72283
v  5.90035 60.617 -1.05178
v  5.53877 60.9311 11.4013
v  14.3441 92.3923 4.34154
v  15.4563 92.5112 14.5934
v  41.8786 105.833 16.0699
v  41.8865 102.585 24.6004
v  3.44717 -0.00348258 -8.27138
v  4.35515 31.277 -7.71112
v  11.9266 59.627 -5.65931
v  23.7118 89.3118 -3.07543
v  46.0886 102.506 9.47732
v  -0.0518729 108.932 92.9987
v  8.43663 101.579 95.4016
v  3.01692 73.0653 129.963
v  -0.0882791 77.355 131.031
v  -6.70556 104.962 93.2846
v  -4.58199 73.8956 130.441
v  -8.90243 -0.0034811 -1.88241
v  1.27539 29.8249 -3.58785
v  -9.28584 31.9216 1.16707
v  -0.768065 62.0285 5.79036
v  -9.41999 61.9825 10.6876
v  -2.18814 92.3911 14.5934
v  -7.05503 94.0405 18.1045
v  -0.064706 112.555 42.6687
v  -9.39404 110.012 46.8888
v  8.81615 -0.00348132 -1.18696
v  8.68798 32.0661 2.23655
v  9.14766 59.2499 9.4135
v  7.78625 92.9821 19.9215
v  9.0072 108.531 48.9436
v  -76.554 95.4177 19.692
v  -113.561 76.0141 34.5087
v  -115.4 78.9223 28.0475
v  -79.8708 93.8591 14.7917
v  -77.2743 84.6727 25.874
v  -110.928 70.2196 36.3637
v  4.90384 -0.00347854 12.7409
v  3.16137 32.2036 13.4987
v  6.36503 32.0346 3.51042
v  1.10062e-08 -2.08535e-14 -1.06535e-07
v  -4.12711 60.9352 13.761
v  -2.05367 60.7676 1.47649
v  -14.4767 92.8123 14.9582
v  -11.3869 92.8991 5.11994
v  -42.3508 103.491 19.6198
v  -40.6798 106.983 11.2545
v  0.760318 31.2878 -4.75375
v  1.7601 -0.00348194 -5.12622
v  -7.06587 60.2697 -4.2176
v  -19.1287 90.3337 -3.98119
v  -43.5236 104.029 3.96762
v  64.1706 110.333 -22.3442
v  51.8516 106.048 -12.9013
v  45.7687 110.999 -22.0612
v  45.136 108.034 -31.8935
v  26.283 120.127 -52.9096
v  26.9168 119.716 -43.3435
v  17.5561 122.546 -43.0779
v  9.78885 118.489 -47.8839
v  0.981472 122.399 -58.7945
v  5.28581 118.629 -44.2836
v  0.117185 121.13 -38.8182
v  -10.257 114.667 -36.4474

# 209 UV coordinates
vt 0.70458 0.403328 0
vt 0.684601 0.36905 0
vt 0.766692 0.352413 0
vt 0.797746 0.363803 0
vt 0.692165 0.432421 0
vt 0.806253 0.390417 0
vt 0.0434346 0.476228 0
vt 0.0434346 0.3908 0
vt 0.178861 0.434687 0
vt 0.193981 0.480352 0
vt 0.318571 0.419265 0
vt 0.313358 0.474012 0
vt 0.446909 0.416354 0
vt 0.464209 0.457616 0
vt 0.446974 0.384884 0
vt 0.511804 0.391784 0
vt 0.523822 0.427378 0
vt 0.527536 0.456627 0
vt 0.0508156 0.367149 0
vt 0.192158 0.393233 0
vt 0.320627 0.378953 0
vt 0.625935 0.424067 0
vt 0.617888 0.385896 0
vt 0.669433 0.0854818 0
vt 0.666496 0.0530454 0
vt 0.837667 0.0184054 0
vt 0.836794 0.0363811 0
vt 0.660216 0.112088 0
vt 0.843268 0.0636869 0
vt 0.0417449 0.0770101 0
vt 0.046259 0.0517256 0
vt 0.154336 0.0695064 0
vt 0.15068 0.10652 0
vt 0.25932 0.0856849 0
vt 0.259218 0.12209 0
vt 0.371765 0.0998666 0
vt 0.376949 0.137682 0
vt 0.488073 0.107034 0
vt 0.496363 0.140277 0
vt 0.0502758 0.0184054 0
vt 0.156042 0.034797 0
vt 0.272954 0.0476052 0
vt 0.384787 0.0649208 0
vt 0.505928 0.070451 0
vt 0.671668 0.584217 0
vt 0.685109 0.546454 0
vt 0.836257 0.56968 0
vt 0.835183 0.58825 0
vt 0.681982 0.608283 0
vt 0.832347 0.615374 0
vt 0.0311359 0.569701 0
vt 0.0335603 0.533688 0
vt 0.157551 0.540495 0
vt 0.149682 0.577023 0
vt 0.266176 0.551222 0
vt 0.27896 0.587507 0
vt 0.388852 0.5501 0
vt 0.399134 0.587258 0
vt 0.506344 0.557017 0
vt 0.517857 0.597867 0
vt 0.0344185 0.507429 0
vt 0.158323 0.508419 0
vt 0.275705 0.507429 0
vt 0.404071 0.515445 0
vt 0.522295 0.526318 0
vt 0.619508 0.788007 0
vt 0.649893 0.763811 0
vt 0.747339 0.764078 0
vt 0.736129 0.78473 0
vt 0.619598 0.819675 0
vt 0.738287 0.808574 0
vt 0.0221904 0.822861 0
vt 0.0197025 0.778957 0
vt 0.164849 0.796838 0
vt 0.168016 0.838151 0
vt 0.286876 0.804762 0
vt 0.291281 0.84605 0
vt 0.404462 0.801686 0
vt 0.406069 0.8415 0
vt 0.411948 0.775314 0
vt 0.47453 0.778619 0
vt 0.465505 0.805121 0
vt 0.465505 0.805121 0
vt 0.454612 0.84363 0
vt 0.173327 0.746637 0
vt 0.28937 0.768992 0
vt 0.570048 0.797738 0
vt 0.592724 0.772371 0
vt 0.66046 0.902644 0
vt 0.659116 0.871361 0
vt 0.776029 0.89509 0
vt 0.773333 0.916985 0
vt 0.655426 0.93087 0
vt 0.771211 0.937057 0
vt 0.0377074 0.969152 0
vt 0.0377168 0.926006 0
vt 0.173366 0.926884 0
vt 0.173783 0.958726 0
vt 0.288598 0.916894 0
vt 0.290221 0.961013 0
vt 0.417338 0.907177 0
vt 0.41895 0.944293 0
vt 0.535414 0.905059 0
vt 0.536085 0.924954 0
vt 0.0363249 0.895401 0
vt 0.172414 0.883208 0
vt 0.292606 0.874288 0
vt 0.413951 0.878426 0
vt 0.541982 0.871361 0
vt 0.711655 0.221606 0
vt 0.711794 0.191607 0
vt 0.827786 0.192195 0
vt 0.823594 0.203456 0
vt 0.714859 0.238433 0
vt 0.82459 0.219552 0
vt 0.0914153 0.248536 0
vt 0.0866514 0.200083 0
vt 0.242201 0.214225 0
vt 0.244946 0.261767 0
vt 0.378486 0.223547 0
vt 0.377271 0.271685 0
vt 0.50073 0.228692 0
vt 0.49471 0.271686 0
vt 0.507237 0.196429 0
vt 0.597565 0.201384 0
vt 0.599096 0.231064 0
vt 0.600538 0.261984 0
vt 0.0975069 0.138219 0
vt 0.248419 0.165616 0
vt 0.377967 0.178508 0
vt 0.659524 0.22284 0
vt 0.663933 0.19631 0
vt 0.920339 0.771734 0
vt 0.943971 0.781385 0
vt 0.93766 0.949559 0
vt 0.907571 0.953761 0
vt 0.879379 0.796365 0
vt 0.87977 0.954793 0
vt 0.883672 0.193682 0
vt 0.915996 0.19471 0
vt 0.910824 0.305064 0
vt 0.874724 0.306561 0
vt 0.918144 0.407992 0
vt 0.874724 0.411567 0
vt 0.906773 0.517541 0
vt 0.87481 0.528328 0
vt 0.914366 0.623684 0
vt 0.884123 0.636914 0
vt 0.947473 0.195144 0
vt 0.945324 0.305076 0
vt 0.944882 0.409798 0
vt 0.947267 0.521931 0
vt 0.944781 0.625608 0
vt 0.675256 0.325359 0
vt 0.68742 0.287101 0
vt 0.850345 0.270719 0
vt 0.846741 0.289985 0
vt 0.684938 0.350228 0
vt 0.857072 0.308087 0
vt 0.0303791 0.339422 0
vt 0.0329757 0.304592 0
vt 0.145297 0.311862 0
vt 0.151607 0.355595 0
vt 0.270499 0.331258 0
vt 0.271895 0.369183 0
vt 0.387418 0.347742 0
vt 0.398284 0.367641 0
vt 0.50514 0.338953 0
vt 0.518561 0.372829 0
vt 0.0373583 0.270719 0
vt 0.160589 0.278876 0
vt 0.26867 0.289591 0
vt 0.401616 0.309074 0
vt 0.520487 0.301571 0
vt 0.583668 0.694072 0
vt 0.765744 0.668078 0
vt 0.762917 0.698365 0
vt 0.593886 0.716606 0
vt 0.607357 0.649651 0
vt 0.765744 0.640472 0
vt 0.00287297 0.662878 0
vt 0.116163 0.653932 0
vt 0.11452 0.690121 0
vt 0.00328901 0.710689 0
vt 0.221632 0.654699 0
vt 0.218212 0.698211 0
vt 0.339494 0.655656 0
vt 0.329232 0.687986 0
vt 0.449013 0.663162 0
vt 0.436902 0.69422 0
vt 0.11408 0.72471 0
vt 0.00374532 0.729804 0
vt 0.221517 0.725077 0
vt 0.33492 0.728098 0
vt 0.439563 0.724082 0
vt 0.570048 0.797738 0
vt 0.565481 0.832669 0
vt 0.509754 0.84605 0
vt 0.518908 0.806552 0
vt 0.531052 0.781604 0
vt 0.659524 0.22284 0
vt 0.666047 0.247802 0
vt 0.639003 0.258458 0
vt 0.635577 0.228909 0
vt 0.635423 0.20346 0
vt 0.640201 0.444122 0
vt 0.588918 0.455669 0
vt 0.581383 0.433866 0
vt 0.570032 0.397981 0

# 124 vertex normals
vn 85.2717 -51.2329 10.194
vn -84.2821 -14.7738 51.752
vn -48.3127 -15.7516 -86.1265
vn -82.2828 4.22442 -56.6718
vn -65.1119 -37.9254 -65.7427
vn 20.6753 -47.8166 -85.3587
vn -53.9242 -46.0835 -70.4876
vn 12.0181 -1.10815 -99.269
vn 9.15977 -7.56938 -99.2915
vn 41.2292 -28.8355 -86.4215
vn 62.0284 -76.5751 -16.9921
vn -63.1131 -22.7409 -74.1592
vn 33.2182 -81.1693 -48.0426
vn -52.868 5.16482 84.7249
vn -31.5989 -25.3265 91.4335
vn -25.8556 -26.6129 92.8614
vn -11.1239 -81.0297 57.5365
vn 7.40165 -98.7388 -13.9949
vn -90.2025 1.55127 43.1404
vn -97.1107 -21.2695 10.8218
vn -94.3504 -23.5473 23.3138
vn -64.7279 -75.9385 6.60627
vn -36.2421 -77.7383 -51.4126
vn -49.3477 -77.7917 -38.9005
vn 47.9079 -52.3329 -70.4706
vn 54.3245 1.78304 83.9385
vn 81.156 -21.8191 54.2
vn 75.2599 -28.285 59.4635
vn 36.2998 -84.3439 39.6034
vn 35.3235 -88.4044 -30.6089
vn 28.2446 3.22482 95.8741
vn -9.42012 -25.0446 96.3537
vn -3.73268 -19.6191 97.9855
vn 1.22754 -83.6939 54.7159
vn -29.738 -95.4745 0.511771
vn -13.8702 -64.5115 75.1391
vn -40.794 -79.2606 45.3167
vn 38.5977 -6.41736 -92.0274
vn 50.5159 -20.3091 -83.879
vn 55.9432 -38.4768 -73.4159
vn 82.9694 -54.6792 11.2365
vn 45.8443 -57.985 -67.3501
vn 97.8617 -19.5222 6.47933
vn 95.9281 -27.9506 4.07036
vn 94.3707 -32.2673 7.27955
vn 24.3185 -78.5417 56.9194
vn 60.258 -78.1021 16.4026
vn -63.0951 -31.6013 70.8546
vn -76.6189 -6.18437 -63.9632
vn -91.738 -11.2086 -38.1903
vn -79.113 -37.7737 -48.107
vn -72.9373 -58.4405 -35.5648
vn -59.399 -72.695 34.4558
vn -35.9412 -0.662292 -93.3156
vn -6.25629 -15.9886 -98.5151
vn 6.11278 -28.0937 -95.7777
vn -14.9246 -54.8779 -82.2537
vn 15.9216 -97.1206 -17.7226
vn 53.3627 -60.5914 59.0009
vn -10.6036 -72.8998 67.6253
vn -26.247 -13.6015 -95.5306
vn -24.8456 -17.9771 -95.1815
vn -19.582 -27.8659 -94.0215
vn 66.1198 -39.6656 -63.6774
vn -16.2362 -41.7258 -89.4167
vn 74.5538 -17.5095 -64.3051
vn 68.3256 -28.3571 -67.2867
vn 74.0631 -30.3325 -59.9549
vn 51.7927 -83.0189 20.6249
vn -26.7753 -92.9326 -25.4286
vn 28.0753 -46.3503 -84.0442
vn 99.4794 1.78588 10.0326
vn 96.3998 -26.4264 -2.95272
vn 96.1187 -27.4611 -2.6624
vn 96.3906 -26.4611 -2.94298
vn 96.1094 -27.4944 -2.65305
vn 45.1105 -87.559 -17.2763
vn -6.59758 -74.3083 -66.5939
vn 82.3163 2.52291 56.7244
vn 63.3559 -20.2831 74.6634
vn 54.3354 -28.1495 79.0903
vn 17.3603 -82.1069 54.379
vn -38.916 -90.8783 15.0555
vn -55.7342 -61.853 -55.3887
vn 46.4811 -67.3867 -57.433
vn 14.6683 0.650524 98.9162
vn 41.296 -25.1263 87.5403
vn 49.5116 -22.5521 83.9047
vn 32.6712 -79.7105 50.7822
vn 35.3032 -93.0943 -9.3343
vn -27.5725 0.766266 96.1206
vn -46.9582 -24.8678 84.7144
vn -41.9458 -27.8514 86.3994
vn -43.7041 -75.0834 49.522
vn -50.7179 -85.6422 -9.6491
vn 33.0164 -90.8064 -25.7706
vn -10.5621 -44.4463 -88.9549
vn -99.503 6.66854 7.39445
vn -93.9545 -26.3552 -21.8624
vn -93.9496 -26.374 -21.8605
vn -93.7454 -27.155 -21.7808
vn -93.7393 -27.1782 -21.7784
vn -42.5622 -86.0343 -28.0458
vn 16.8085 -71.8186 -67.5245
vn -96.0111 6.46644 27.2041
vn -77.0899 -20.13 60.4312
vn -69.7356 -28.1031 65.933
vn -30.3252 -82.6523 47.4234
vn 32.6878 -92.8077 17.8391
vn -3.92807 -92.4846 -37.8309
vn 25.1432 -75.3692 -60.7231
vn 34.1514 -86.678 36.3402
vn 65.9129 -73.6701 15.1065
vn -12.1722 -98.7655 -9.85969
vn -34.1058 -93.7267 -7.21814
vn -22.436 -71.1463 -66.5945
vn 51.9801 -85.2328 -5.78214
vn 62.1029 -61.9729 -47.9852
vn -56.6731 -78.301 25.6342
vn -53.9988 -83.8179 -7.66162
vn -64.0247 -62.7148 -44.3587
vn 46.5612 -81.3769 -34.783
vn 27.3502 -67.0786 -68.9379
vn -37.6042 -91.4554 14.8943

# Mesh 'Plane.004_Plane.004' with 239 faces
g Plane.004_Plane.004
usemtl Material.001
f  1/1/1 2/2/1 3/3/1
f  1/1/1 3/3/1 4/4/1
f  5/5/2 1/1/2 4/4/2
f  5/5/2 4/4/2 6/6/2
f  7/7/3 8/8/3 9/9/3
f  7/7/3 9/9/3 10/10/3
f  10/10/4 9/9/4 11/11/4
f  10/10/4 11/11/4 12/12/4
f  12/12/5 11/11/5 13/13/5
f  12/12/5 13/13/5 14/14/5
f  13/13/6 15/15/6 16/16/6
f  13/13/6 16/16/6 17/17/6
f  14/14/7 13/13/7 17/17/7
f  14/14/7 17/17/7 18/18/7
f  8/8/8 19/19/8 20/20/8
f  8/8/8 20/20/8 9/9/8
f  9/9/9 20/20/9 21/21/9
f  9/9/9 21/21/9 11/11/9
f  11/11/10 21/21/10 15/15/10
f  11/11/10 15/15/10 13/13/10
f  22/22/11 23/23/11 2/2/11
f  22/22/11 2/2/11 1/1/11
f  24/24/12 25/25/12 26/26/12
f  24/24/12 26/26/12 27/27/12
f  28/28/13 24/24/13 27/27/13
f  28/28/13 27/27/13 29/29/13
f  30/30/14 31/31/14 32/32/14
f  30/30/14 32/32/14 33/33/14
f  33/33/15 32/32/15 34/34/15
f  33/33/15 34/34/15 35/35/15
f  35/35/16 34/34/16 36/36/16
f  35/35/16 36/36/16 37/37/16
f  37/37/17 36/36/17 38/38/17
f  37/37/17 38/38/17 39/39/17
f  39/39/18 38/38/18 24/24/18
f  39/39/18 24/24/18 28/28/18
f  31/31/19 40/40/19 41/41/19
f  31/31/19 41/41/19 32/32/19
f  32/32/20 41/41/20 42/42/20
f  32/32/20 42/42/20 34/34/20
f  34/34/21 42/42/21 43/43/21
f  34/34/21 43/43/21 36/36/21
f  36/36/22 43/43/22 44/44/22
f  36/36/22 44/44/22 38/38/22
f  38/38/23 44/44/23 25/25/23
f  38/38/23 25/25/23 24/24/23
f  45/45/24 46/46/24 47/47/24
f  45/45/24 47/47/24 48/48/24
f  49/49/25 45/45/25 48/48/25
f  49/49/25 48/48/25 50/50/25
f  51/51/26 31/52/26 52/53/26
f  51/51/26 52/53/26 53/54/26
f  53/54/27 52/53/27 54/55/27
f  53/54/27 54/55/27 55/56/27
f  55/56/28 54/55/28 56/57/28
f  55/56/28 56/57/28 57/58/28
f  57/58/29 56/57/29 58/59/29
f  57/58/29 58/59/29 59/60/29
f  59/60/30 58/59/30 45/45/30
f  59/60/30 45/45/30 49/49/30
f  31/52/31 60/61/31 61/62/31
f  31/52/31 61/62/31 52/53/31
f  52/53/32 61/62/32 62/63/32
f  52/53/32 62/63/32 54/55/32
f  54/55/33 62/63/33 63/64/33
f  54/55/33 63/64/33 56/57/33
f  56/57/34 63/64/34 64/65/34
f  56/57/34 64/65/34 58/59/34
f  58/59/35 64/65/35 46/46/35
f  58/59/35 46/46/35 45/45/35
f  65/66/36 66/67/36 67/68/36
f  65/66/36 67/68/36 68/69/36
f  69/70/37 65/66/37 68/69/37
f  69/70/37 68/69/37 70/71/37
f  71/72/38 31/73/38 72/74/38
f  71/72/38 72/74/38 73/75/38
f  73/75/39 72/74/39 74/76/39
f  73/75/39 74/76/39 75/77/39
f  75/77/40 74/76/40 76/78/40
f  75/77/40 76/78/40 77/79/40
f  76/78/41 78/80/41 79/81/41
f  76/78/41 79/81/41 80/82/41
f  77/79/42 76/78/42 80/83/42
f  77/79/42 80/83/42 81/84/42
f  31/73/43 82/85/43 72/74/43
f  72/74/44 82/85/44 83/86/44
f  72/74/44 83/86/44 74/76/44
f  74/76/45 83/86/45 78/80/45
f  74/76/45 78/80/45 76/78/45
f  84/87/46 85/88/46 66/67/46
f  84/87/46 66/67/46 65/66/46
f  86/89/47 87/90/47 88/91/47
f  86/89/47 88/91/47 89/92/47
f  90/93/48 86/89/48 89/92/48
f  90/93/48 89/92/48 91/94/48
f  92/95/49 31/96/49 93/97/49
f  92/95/49 93/97/49 94/98/49
f  94/98/50 93/97/50 95/99/50
f  94/98/50 95/99/50 96/100/50
f  96/100/51 95/99/51 97/101/51
f  96/100/51 97/101/51 98/102/51
f  98/102/52 97/101/52 99/103/52
f  98/102/52 99/103/52 100/104/52
f  100/104/53 99/103/53 86/89/53
f  100/104/53 86/89/53 90/93/53
f  31/96/54 101/105/54 102/106/54
f  31/96/54 102/106/54 93/97/54
f  93/97/55 102/106/55 103/107/55
f  93/97/55 103/107/55 95/99/55
f  95/99/56 103/107/56 104/108/56
f  95/99/56 104/108/56 97/101/56
f  97/101/57 104/108/57 105/109/57
f  97/101/57 105/109/57 99/103/57
f  99/103/58 105/109/58 87/90/58
f  99/103/58 87/90/58 86/89/58
f  106/110/59 107/111/59 108/112/59
f  106/110/59 108/112/59 109/113/59
f  110/114/60 106/110/60 109/113/60
f  110/114/60 109/113/60 111/115/60
f  112/116/61 31/117/61 113/118/61
f  112/116/61 113/118/61 114/119/61
f  114/119/62 113/118/62 115/120/62
f  114/119/62 115/120/62 116/121/62
f  116/121/63 115/120/63 117/122/63
f  116/121/63 117/122/63 118/123/63
f  117/122/64 119/124/64 120/125/64
f  117/122/64 120/125/64 121/126/64
f  118/123/65 117/122/65 121/126/65
f  118/123/65 121/126/65 122/127/65
f  31/117/66 123/128/66 124/129/66
f  31/117/66 124/129/66 113/118/66
f  113/118/67 124/129/67 125/130/67
f  113/118/67 125/130/67 115/120/67
f  115/120/68 125/130/68 119/124/68
f  115/120/68 119/124/68 117/122/68
f  126/131/69 127/132/69 107/111/69
f  126/131/69 107/111/69 106/110/69
f  128/133/70 129/134/70 130/135/70
f  128/133/70 130/135/70 131/136/70
f  132/137/71 128/133/71 131/136/71
f  132/137/71 131/136/71 133/138/71
f  134/139/72 31/140/72 135/141/72
f  134/139/72 135/141/72 136/142/72
f  136/142/73 135/141/73 137/143/74
f  136/142/73 137/143/74 138/144/75
f  138/144/75 137/143/74 139/145/76
f  138/144/75 139/145/76 140/146/76
f  140/146/77 139/145/77 141/147/77
f  140/146/77 141/147/77 142/148/77
f  142/148/78 141/147/78 128/133/78
f  142/148/78 128/133/78 132/137/78
f  31/140/79 143/149/79 144/150/79
f  31/140/79 144/150/79 135/141/79
f  135/141/80 144/150/80 145/151/80
f  135/141/80 145/151/80 137/143/80
f  137/143/81 145/151/81 146/152/81
f  137/143/81 146/152/81 139/145/81
f  139/145/82 146/152/82 147/153/82
f  139/145/82 147/153/82 141/147/82
f  141/147/83 147/153/83 129/134/83
f  141/147/83 129/134/83 128/133/83
f  148/154/84 149/155/84 150/156/84
f  148/154/84 150/156/84 151/157/84
f  152/158/85 148/154/85 151/157/85
f  152/158/85 151/157/85 153/159/85
f  154/160/86 31/161/86 155/162/86
f  154/160/86 155/162/86 156/163/86
f  156/163/87 155/162/87 157/164/87
f  156/163/87 157/164/87 158/165/87
f  158/165/88 157/164/88 159/166/88
f  158/165/88 159/166/88 160/167/88
f  160/167/89 159/166/89 161/168/89
f  160/167/89 161/168/89 162/169/89
f  162/169/90 161/168/90 148/154/90
f  162/169/90 148/154/90 152/158/90
f  31/161/91 163/170/91 164/171/91
f  31/161/91 164/171/91 155/162/91
f  155/162/92 164/171/92 165/172/92
f  155/162/92 165/172/92 157/164/92
f  157/164/93 165/172/93 166/173/93
f  157/164/93 166/173/93 159/166/93
f  159/166/94 166/173/94 167/174/94
f  159/166/94 167/174/94 161/168/94
f  161/168/95 167/174/95 149/155/95
f  161/168/95 149/155/95 148/154/95
f  168/175/96 169/176/96 170/177/96
f  168/175/96 170/177/96 171/178/96
f  172/179/97 173/180/97 169/176/97
f  172/179/97 169/176/97 168/175/97
f  174/181/98 175/182/98 176/183/98
f  174/181/98 176/183/98 177/184/98
f  175/182/99 178/185/100 179/186/101
f  175/182/99 179/186/101 176/183/99
f  178/185/100 180/187/102 181/188/102
f  178/185/100 181/188/102 179/186/101
f  180/187/103 182/189/103 183/190/103
f  180/187/103 183/190/103 181/188/103
f  182/189/104 172/179/104 168/175/104
f  182/189/104 168/175/104 183/190/104
f  177/184/105 176/183/105 184/191/105
f  177/184/105 184/191/105 185/192/105
f  176/183/106 179/186/106 186/193/106
f  176/183/106 186/193/106 184/191/106
f  179/186/107 181/188/107 187/194/107
f  179/186/107 187/194/107 186/193/107
f  181/188/108 183/190/108 188/195/108
f  181/188/108 188/195/108 187/194/108
f  183/190/109 168/175/109 171/178/109
f  183/190/109 171/178/109 188/195/109
f  84/196/110 189/197/110 190/198/110
f  84/196/110 190/198/110 191/199/110
f  191/199/111 190/198/111 81/84/111
f  191/199/111 81/84/111 80/83/111
f  85/88/112 84/87/112 191/199/112
f  85/88/112 191/199/112 192/200/112
f  192/200/113 191/199/113 80/82/113
f  192/200/113 80/82/113 79/81/113
f  189/197/114 84/196/114 65/66/114
f  189/197/114 65/66/114 69/70/114
f  126/201/115 193/202/115 194/203/115
f  126/201/115 194/203/115 195/204/115
f  195/204/116 194/203/116 122/127/116
f  195/204/116 122/127/116 121/126/116
f  127/132/117 126/131/117 195/204/117
f  127/132/117 195/204/117 196/205/117
f  196/205/118 195/204/118 121/126/118
f  196/205/118 121/126/118 120/125/118
f  193/202/119 126/201/119 106/110/119
f  193/202/119 106/110/119 110/114/119
f  22/22/120 197/206/120 198/207/120
f  22/22/120 198/207/120 199/208/120
f  199/208/121 198/207/121 18/18/121
f  199/208/121 18/18/121 17/17/121
f  23/23/122 22/22/122 199/208/122
f  23/23/122 199/208/122 200/209/122
f  200/209/123 199/208/123 17/17/123
f  200/209/123 17/17/123 16/16/123
f  197/206/124 22/22/124 1/1/124
f  197/206/124 1/1/124 5/5/124

